<?xml version="1.0"?>
<svg xmlns="http://www.w3.org/2000/svg" xmlns:xlink="http://www.w3.org/1999/xlink" xmlns:svgjs="http://svgjs.com/svgjs" version="1.1" width="512" height="512" x="0" y="0" viewBox="0 0 100 100" style="enable-background:new 0 0 512 512" xml:space="preserve"><g><path d="m81.355 49.225c-.414-16.942-14.315-30.6-31.355-30.6-5.417 0-10.519 1.381-14.97 3.808-17.099-6.15-28.944-6.141-32.542.08-2.737 4.73-.046 11.745 7.78 20.285 2.413 2.633 5.235 5.312 8.377 7.98.416 16.942 14.315 30.597 31.355 30.597 5.414 0 10.512-1.379 14.962-3.804 3.878 1.394 7.605 2.504 11.088 3.282 3.894.871 7.324 1.304 10.264 1.303 5.596 0 9.405-1.568 11.199-4.67 3.601-6.224-2.287-16.499-16.158-28.261zm-3.991.356c-.09.336-.091.687-.005 1.02-.206 9.497-5.268 17.813-12.801 22.565-6.984-2.638-14.452-6.211-21.881-10.51-7.433-4.3-14.255-8.993-20.025-13.736.57-14.595 12.616-26.295 27.348-26.295 14.954 0 27.139 12.055 27.364 26.956zm-64.148-9.486c-6.249-6.819-8.965-12.643-7.267-15.579 1.875-3.239 10.246-4.11 24.857.691-6.335 4.916-10.741 12.198-11.881 20.511-2.095-1.886-4.009-3.768-5.709-5.623zm36.784 37.28c-13.639 0-24.978-10.027-27.038-23.096 5.291 4.103 11.283 8.121 17.712 11.84 6.427 3.718 12.896 6.909 19.087 9.45-3.033 1.162-6.323 1.806-9.761 1.806zm44.05-1.892c-1.698 2.936-8.1 3.486-17.127 1.467-2.461-.55-5.052-1.273-7.737-2.151 6.339-4.914 10.747-12.197 11.889-20.512 11.443 10.27 14.851 17.954 12.975 21.196z" fill="#1c52fd" data-original="#000000"/></g></svg>
